<?xml version="1.0" encoding="UTF-8"?>
<svg width="20px" height="20px" viewBox="0 0 20 20" version="1.1" xmlns="http://www.w3.org/2000/svg" xmlns:xlink="http://www.w3.org/1999/xlink">
    <!-- Generator: Sketch 40.3 (33839) - http://www.bohemiancoding.com/sketch -->
    <title>icon_nav_ biyan</title>
    <desc>Created with Sketch.</desc>
    <defs>
        <rect id="path-1" x="0" y="0" width="20" height="20"></rect>
    </defs>
    <g id="Page-3" stroke="none" stroke-width="1" fill="none" fill-rule="evenodd">
        <g id="icon_nav_-biyan">
            <g id="icon_closeeye_login">
                <g id="Combined-Shape">
                    <mask id="mask-2" fill="white">
                        <use xlink:href="#path-1"></use>
                    </mask>
                    <g id="Mask"></g>
                    <path d="M3.14528056,11.9980577 C4.39493123,12.6186497 5.8011433,13.0692745 7.36768681,13.3072282 C7.33536925,13.3624 7.31347159,13.4246172 7.3052353,13.4916964 L7.06037273,15.485942 C7.02629363,15.763494 7.22218902,16.0049198 7.49627308,16.0385731 C7.76234136,16.0712422 8.01957594,15.8793678 8.05291888,15.6078114 L8.29778145,13.6135658 C8.30606166,13.5461289 8.30076543,13.4808247 8.28406991,13.4201152 C8.83739298,13.4728129 9.40932034,13.5 10,13.5 C10.7484441,13.5 11.4667811,13.4563506 12.155312,13.3724626 C12.1033064,13.4725916 12.0843433,13.590282 12.1114383,13.7076433 L12.5634149,15.6653691 C12.6263194,15.9378384 12.8929733,16.0977042 13.1620382,16.0355857 C13.4232341,15.9752839 13.5993306,15.7070015 13.537785,15.440418 L13.0858083,13.4826922 C13.0650079,13.3925954 13.0219292,13.3148108 12.9638518,13.2532931 C14.3218542,13.0175752 15.5559983,12.6196391 16.6688503,12.0885529 C16.6916063,12.1351291 16.7221718,12.1786976 16.760691,12.2172168 L18.1814255,13.6379513 C18.3791583,13.8356841 18.6900096,13.8299529 18.8852718,13.6346908 C19.0748234,13.4451392 19.0819937,13.1243059 18.8885323,12.9308445 L17.5715444,11.6138566 C17.677961,11.5524663 17.7831282,11.4897802 17.8870487,11.4258292 C18.6293221,10.9690455 19.2549497,10.4783572 19.7681409,9.98569366 C20.0813835,9.68498082 20.29055,9.44593339 20.4,9.3 C20.4,9.3 19.348304,9.00251918 19.0756091,9.26430634 C18.6122378,9.7091428 18.0425529,10.1559545 17.3629513,10.5741708 C15.408784,11.7767353 12.9677657,12.5 10,12.5 C7.03223429,12.5 4.59121599,11.7767353 2.63704871,10.5741708 C1.9574471,10.1559545 1.38776222,9.7091428 0.924390914,9.26430634 C0.651695953,9.00251918 -0.4,9.3 -0.4,9.3 C-0.290549961,9.44593339 -0.0813834527,9.68498082 0.231859086,9.98569366 C0.745050277,10.4783572 1.3706779,10.9690455 2.11295129,11.4258292 C2.16360503,11.4570007 2.21455498,11.4878717 2.26580144,11.5184385 L1.26251617,13.1240306 C1.11433146,13.3611757 1.18984203,13.6627708 1.42402405,13.8091039 C1.65135725,13.9511575 1.96558059,13.8859722 2.11056426,13.6539499 L3.14528056,11.9980577 Z" fill="#00a5e0" mask="url(#mask-2)"></path>
                </g>
            </g>
        </g>
    </g>
</svg>